<svg xmlns="http://www.w3.org/2000/svg">

<symbol id="logo" xmlns="http://www.w3.org/2000/svg" viewBox="0 0 119 23">
<path d="M5.768 22.252C4.592 22.252 3.572 22.072 2.708 21.712C1.844 21.352 1.184 20.716 0.728 19.804C0.296 18.892 0.08 17.608 0.08 15.952V14.728C0.656 14.728 1.244 14.728 1.844 14.728C2.444 14.728 3.032 14.728 3.608 14.728V16.24C3.608 17.248 3.704 18.028 3.896 18.58C4.088 19.132 4.352 19.516 4.688 19.732C5.024 19.924 5.408 20.02 5.84 20.02C6.536 20.02 7.088 19.792 7.496 19.336C7.928 18.856 8.144 17.968 8.144 16.672C8.144 15.712 8 14.992 7.712 14.512C7.424 14.032 6.968 13.648 6.344 13.36C5.744 13.048 4.964 12.7 4.004 12.316C3.212 11.956 2.528 11.536 1.952 11.056C1.376 10.576 0.944 9.964 0.656 9.22C0.368 8.476 0.224 7.552 0.224 6.448C0.224 5.104 0.392 4.012 0.728 3.172C1.088 2.308 1.688 1.684 2.528 1.3C3.368 0.891999 4.496 0.688 5.912 0.688C7.736 0.688 9.128 1.108 10.088 1.948C11.048 2.764 11.528 3.964 11.528 5.548V8.032C10.976 8.032 10.412 8.032 9.836 8.032C9.284 8.032 8.72 8.032 8.144 8.032V6.556C8.144 5.452 7.964 4.66 7.604 4.18C7.268 3.676 6.716 3.424 5.948 3.424C5.156 3.424 4.58 3.664 4.22 4.144C3.884 4.6 3.716 5.332 3.716 6.34C3.716 7.204 3.884 7.876 4.22 8.356C4.556 8.812 4.988 9.172 5.516 9.436C6.068 9.7 6.632 9.94 7.208 10.156C8.288 10.564 9.164 10.984 9.836 11.416C10.508 11.848 11 12.424 11.312 13.144C11.624 13.864 11.78 14.884 11.78 16.204C11.78 17.716 11.528 18.916 11.024 19.804C10.544 20.668 9.848 21.292 8.936 21.676C8.048 22.06 6.992 22.252 5.768 22.252ZM20.9164 22.432C20.1004 22.432 19.3444 22.372 18.6484 22.252C17.9524 22.132 17.3524 21.892 16.8484 21.532C16.3444 21.172 15.9484 20.632 15.6604 19.912C15.3724 19.192 15.2284 18.22 15.2284 16.996V0.723999H18.6844V17.896C18.6844 18.544 18.7804 19.048 18.9724 19.408C19.1884 19.744 19.4644 19.972 19.8004 20.092C20.1364 20.212 20.5084 20.272 20.9164 20.272C21.3244 20.272 21.6964 20.212 22.0324 20.092C22.3684 19.972 22.6324 19.744 22.8244 19.408C23.0404 19.048 23.1484 18.544 23.1484 17.896V0.723999H26.5684V16.96C26.5684 18.184 26.4244 19.168 26.1364 19.912C25.8724 20.632 25.4884 21.172 24.9844 21.532C24.4804 21.892 23.8804 22.132 23.1844 22.252C22.4884 22.372 21.7324 22.432 20.9164 22.432ZM30.822 22V0.723999H38.022C39.366 0.723999 40.398 1.024 41.118 1.624C41.838 2.224 42.198 3.112 42.198 4.288V8.068C42.198 8.98 42.078 9.832 41.838 10.624C41.622 11.392 41.19 12.016 40.542 12.496C39.918 12.976 39.006 13.216 37.806 13.216H34.422V22H30.822ZM34.422 11.272H36.618C37.338 11.272 37.878 10.996 38.238 10.444C38.598 9.868 38.778 8.944 38.778 7.672V5.764C38.778 4.636 38.622 3.832 38.31 3.352C37.998 2.872 37.566 2.632 37.014 2.632H34.422V11.272ZM45.6045 22V0.723999H55.1805V3.172H49.2045V9.616H54.1365V12.316H49.2045V19.624H55.1805V22H45.6045ZM58.4534 22V0.723999H65.7974C67.1414 0.723999 68.1734 1.024 68.8934 1.624C69.6374 2.224 70.0094 3.112 70.0094 4.288V7.672C70.0094 8.848 69.6854 9.808 69.0374 10.552C68.3894 11.272 67.4294 11.668 66.1574 11.74C66.9734 11.812 67.5494 12.076 67.8854 12.532C68.2454 12.988 68.5694 13.696 68.8574 14.656L70.9094 22H67.0934L65.4014 14.908C65.2334 14.308 65.0414 13.78 64.8254 13.324C64.6094 12.868 64.2614 12.64 63.7814 12.64H62.0174V22H58.4534ZM62.0174 10.228H64.3214C65.1614 10.228 65.7494 10.012 66.0854 9.58C66.4454 9.148 66.6254 8.488 66.6254 7.6V4.9C66.6254 4.108 66.4574 3.532 66.1214 3.172C65.8094 2.812 65.3174 2.632 64.6454 2.632H62.0174V10.228ZM78.6132 22.396C77.7972 22.396 77.0292 22.264 76.3092 22C75.5892 21.76 75.0012 21.268 74.5452 20.524C74.1132 19.756 73.8972 18.616 73.8972 17.104V5.224C73.8972 3.928 74.1372 2.944 74.6172 2.272C75.0972 1.576 75.7692 1.108 76.6332 0.868C77.4972 0.603999 78.4932 0.471998 79.6212 0.471998C80.7492 0.471998 81.7452 0.603999 82.6092 0.868C83.4732 1.132 84.1452 1.612 84.6252 2.308C85.1292 2.98 85.3812 3.952 85.3812 5.224V8.104H82.0332V5.08C82.0332 4.36 81.9252 3.82 81.7092 3.46C81.5172 3.1 81.2412 2.86 80.8812 2.74C80.5452 2.62 80.1372 2.56 79.6572 2.56C79.2252 2.56 78.8292 2.62 78.4692 2.74C78.1092 2.86 77.8212 3.1 77.6052 3.46C77.4132 3.82 77.3172 4.36 77.3172 5.08V17.86C77.3172 18.58 77.4132 19.12 77.6052 19.48C77.8212 19.84 78.1092 20.08 78.4692 20.2C78.8292 20.32 79.2252 20.38 79.6572 20.38C80.3532 20.38 80.9172 20.176 81.3492 19.768C81.8052 19.336 82.0332 18.7 82.0332 17.86V13.54H79.9092V11.56H85.3812V22H82.7892L82.6092 20.2C82.5612 20.296 82.5012 20.404 82.4292 20.524C82.3572 20.62 82.2972 20.704 82.2492 20.776C81.9612 21.208 81.5292 21.592 80.9532 21.928C80.4012 22.24 79.6212 22.396 78.6132 22.396ZM91.9112 22V12.856L87.9512 0.723999H91.3712L93.6032 7.996L93.7832 9.112L93.9992 7.996L96.3392 0.723999H99.5432L95.3672 13.036V22H91.9112ZM102.449 22V0.723999H106.697L110.261 15.844L113.861 0.723999H118.073V22H115.013V5.584L111.449 22H109.073L105.509 5.584V22H102.449Z" fill="white"/>
</symbol>

<symbol id="vk" xmlns="http://www.w3.org/2000/svg" viewBox="0 0 13 8">
<path d="M7.72 6.05c.45-.14 1.01.95 1.62 1.36.45.32.8.25.8.25l1.6-.02s.84-.06.45-.72c-.04-.06-.24-.5-1.2-1.4-1-.95-.87-.8.34-2.43.74-1 1.04-1.6.94-1.87-.08-.25-.63-.18-.63-.18l-1.8.01c-.19 0-.34.06-.4.24 0 0-.3.77-.67 1.43-.8 1.38-1.13 1.45-1.26 1.37-.31-.2-.23-.8-.23-1.24 0-1.34.2-1.9-.4-2.04a3.1 3.1 0 0 0-.84-.09c-.65 0-1.2 0-1.5.16-.2.1-.37.33-.27.34.12.02.39.07.53.27.19.26.18.83.18.83s.11 1.58-.25 1.77c-.24.14-.58-.14-1.3-1.4-.36-.63-.64-1.35-.64-1.35s-.05-.13-.15-.2a.67.67 0 0 0-.28-.11H.64s-.26.02-.35.13c-.08.1 0 .3 0 .3s1.34 3.2 2.86 4.8c1.4 1.47 3 1.38 3 1.38h.71s.22-.03.33-.15c.1-.1.1-.32.1-.32s-.01-.97.43-1.12Z"/>
</symbol>

<symbol id="ok" xmlns="http://www.w3.org/2000/svg" viewBox="0 0 10 17">
<path d="M4.68 2.89c.9 0 1.63.75 1.63 1.68 0 .93-.73 1.68-1.63 1.68-.9 0-1.63-.75-1.63-1.68 0-.93.73-1.68 1.63-1.68Zm0 5.74a4 4 0 0 0 3.94-4.06A4 4 0 0 0 4.68.51 4 4 0 0 0 .75 4.57a4 4 0 0 0 3.93 4.06Zm1.6 3.31c.8-.19 1.56-.51 2.28-.97.53-.35.7-1.09.36-1.64a1.13 1.13 0 0 0-1.6-.38 4.87 4.87 0 0 1-5.29 0 1.13 1.13 0 0 0-1.59.38c-.34.55-.17 1.29.36 1.64.72.46 1.49.78 2.29.97l-2.2 2.27a1.22 1.22 0 0 0 0 1.68 1.14 1.14 0 0 0 1.63 0l2.16-2.23 2.16 2.23c.45.47 1.18.47 1.63 0 .45-.46.45-1.21 0-1.68l-2.2-2.27Z"/>
</symbol>

<symbol id="reddit" xmlns="http://www.w3.org/2000/svg" viewBox="0 0 15 15">
<path d="M8.85.56c-.44 0-.86.22-1.13.55a2.7 2.7 0 0 0-.52 1.14 9.43 9.43 0 0 0-.24 2.1 7.32 7.32 0 0 0-3.33 1.02 2 2 0 0 0-1.28-.5c-.5 0-.98.23-1.33.67-.68.85-.6 2.24.18 3.06-.05.26-.08.52-.08.78 0 2.8 2.85 5.06 6.38 5.06s6.38-2.26 6.38-5.06c0-.26-.03-.52-.08-.78.78-.82.86-2.21.18-3.06a1.7 1.7 0 0 0-1.33-.67 2 2 0 0 0-1.28.5 7.31 7.31 0 0 0-3.31-1.03 8.4 8.4 0 0 1 .18-1.75c.08-.3.17-.52.27-.65.1-.12.17-.17.34-.17.36 0 .4.12.63.4.1.15.23.32.43.5.2.17.5.32.83.32V1.77c-.09 0-.1 0-.17-.05-.06-.06-.14-.18-.27-.35-.25-.32-.73-.81-1.45-.81Zm3.51.11c-.84 0-1.52.77-1.52 1.71 0 .95.68 1.71 1.52 1.71s1.52-.76 1.52-1.7c0-.95-.68-1.72-1.52-1.72Zm0 .6c.54 0 .98.5.98 1.11 0 .61-.44 1.1-.98 1.1s-.98-.49-.98-1.1c0-.6.44-1.1.98-1.1ZM7.5 5.3c3 0 5.52 1.88 5.52 4.1 0 2.21-2.53 4.08-5.52 4.08-3 0-5.52-1.87-5.52-4.09C1.98 7.17 4.5 5.3 7.5 5.3Zm-5.13.55c.15 0 .3.05.45.12-.54.46-.97 1-1.26 1.6-.2-.47-.15-1.06.1-1.37a.88.88 0 0 1 .7-.35Zm10.26 0c.28 0 .53.12.71.35.25.3.3.9.1 1.37a4.94 4.94 0 0 0-1.26-1.6c.15-.07.3-.11.45-.12Zm-7.3 1.53c-.53 0-.97.5-.97 1.1 0 .6.44 1.1.98 1.1s.98-.5.98-1.1c0-.6-.44-1.1-.98-1.1Zm4.33 0c-.54 0-.98.5-.98 1.1 0 .6.44 1.1.98 1.1s.98-.5.98-1.1c0-.6-.44-1.1-.98-1.1Zm-4.84 3.75c.34.8 1.4 1.57 2.68 1.57 1.28 0 2.36-.77 2.7-1.57-.62.45-1.6.76-2.7.76s-2.06-.31-2.68-.77Z"/>
</symbol>

<symbol id="arrow" xmlns="http://www.w3.org/2000/svg" viewBox="0 0 18 34">
<path d="M17 33L0.999999 17L17 0.999998" stroke="#AFAFAF"/>
</symbol>

</svg>
